<svg version="1.1" id="Layer_1" xmlns="http://www.w3.org/2000/svg" x="0" y="0" viewBox="0 0 569.84 95.31" style="enable-background:new 0 0 569.84 95.31" xml:space="preserve" fill="white">
  <style>
    .st0{fill:#100695}.st1{fill:#009898}.st2{fill:#fff}
  </style>
  <path class="st0" d="m-956.4 77.59-2.81 16.16h-52.73L-996 1.94h51.98l-2.8 16.16h-33.9l-3.59 20.69h32.08l-2.78 16.04h-32.09l-3.95 22.76h34.65zM-927.32 29.1l-2.02 11.64c4.97-8.92 10.87-13.32 18.78-13.32 7.59 0 11.77 4.27 12.85 13.45 5.42-9.05 11.75-13.45 19.45-13.45 10.37 0 14.92 8.92 12.3 24.05l-7.34 42.29h-17.11l6.58-37.89c1.5-8.66-.07-12.54-4.99-12.54-5.13 0-8.83 4.66-10.33 13.32l-6.44 37.12h-17.11l6.6-38.02c1.46-8.41-.2-12.41-4.9-12.41-5.13 0-8.85 4.78-10.36 13.45l-6.42 36.99H-955l11.22-64.66h16.46zM-850.89 83.93l-2.78 9.83h-15.29L-852.69 0h17.22l-6.58 37.89c3.86-6.21 10.24-10.35 17.62-10.35 13.16 0 19.16 13.45 15.62 33.88-3.57 20.56-14.43 33.88-27.91 33.88-7.48.01-12.6-4.39-14.17-11.37zm24.44-22.51c2.13-12.29-.14-19.53-6.9-19.4-6.2 0-10.94 6.34-12.73 16.68l-.94 5.43c-1.82 10.47.72 16.81 7.03 16.81 6.51.01 11.36-6.97 13.54-19.52zM-764.15 27.54h1.07l-3.43 19.79c-1.05-.13-1.9-.13-3.19-.13-4.6 0-8.27 1.42-11.05 3.88-4.1 3.88-5.96 9.7-7.11 16.29l-4.58 26.38h-17.22l11.22-64.66h16.15l-2.89 16.68c4.8-11.63 11.83-18.23 21.03-18.23zM-770.37 76.17c1.05-6.08 3.7-10.86 7.88-13.97 4.05-2.97 9.54-5.04 17.89-6.34l13.32-2.2.38-2.2c1.28-7.37-.73-10.61-6.07-10.61-5.24 0-8.82 3.36-10.22 9.57h-17c3.35-14.35 14.45-22.89 29.64-22.89 17.22 0 23.51 8.15 20.28 26.77l-3.72 21.47c-1.32 7.63-1.89 13.97-1.62 17.98h-16.68c0-3.1.4-6.6.92-10.22-3.93 7.24-11.56 11.77-19.9 11.77-11.05.01-17.1-7.62-15.1-19.13zm36.95-7.12.9-5.17-9.51 1.81c-6.56 1.42-9.92 4.14-10.75 8.92-.79 4.53 1.69 7.5 6.19 7.5 6.52.01 11.83-5.3 13.17-13.06zM-658.14 66.08h-37.11c-1.42 8.79 2.64 14.36 9.81 14.36 5.24 0 9.74-3.1 13.23-9.05l11.41 6.98c-6.12 10.6-16.31 16.94-27.43 16.94-17.65 0-26.21-12.29-22.58-33.23 3.68-21.21 16.47-34.53 33.16-34.53 16.79 0 24.16 11.77 20.59 32.33l-1.08 6.2zm-14.47-12.16c1.59-9.18-1.08-14.1-7.5-14.1-6.63 0-11.32 5.43-13.13 14.61h20.53l.1-.51zM-610.91 27.54h1.07l-3.43 19.79c-1.05-.13-1.9-.13-3.19-.13-4.6 0-8.27 1.42-11.05 3.88-4.1 3.88-5.96 9.7-7.11 16.29l-4.58 26.38h-17.22l11.22-64.66h16.15l-2.89 16.68c4.8-11.63 11.83-18.23 21.03-18.23z"/>
  <path class="st1" d="m-1152.26 39.93 4.12-23.69h23.82l2.45-13.91h-41.72l-16.1 91.42h17.9l7.08-40.04h21.89l2.45-13.78zM-1109.77 78.05l12.64-71.46-4.25-4.25h-12.89l-14 79.49c-1.1 6.22 3.69 11.93 10.01 11.93h15.07l15.75-15.71h-22.33zM-1031.03 43.71l26.63-26.63-15.31.07c-4.4.02-8.62 1.78-11.74 4.9l-10.62 10.62 11.04 11.04zM-1036.76 44.89l-8.73-8.73-19.88-19.88h-22.06l24.49 24.49c2.64 2.64 6.22 4.12 9.95 4.12h16.23zM-1062.93 53.55l-24.5 24.49h22.06l19.88-19.88 8.74-8.73h-16.24c-3.72.01-7.3 1.49-9.94 4.12z"/>
  <path class="st2" d="m-366.55 77.59-2.81 16.16h-52.73l15.93-91.82h51.98l-2.8 16.16h-33.9l-3.59 20.69h32.09l-2.78 16.04h-32.09l-3.95 22.76h34.65zM-337.48 29.1l-2.02 11.64c4.97-8.92 10.87-13.32 18.78-13.32 7.59 0 11.77 4.27 12.85 13.45 5.42-9.05 11.75-13.45 19.45-13.45 10.37 0 14.92 8.92 12.3 24.05l-7.34 42.29h-17.11l6.58-37.89c1.5-8.66-.07-12.54-4.99-12.54-5.13 0-8.83 4.66-10.33 13.32l-6.44 37.12h-17.11l6.6-38.02c1.46-8.41-.2-12.41-4.9-12.41-5.13 0-8.85 4.78-10.36 13.45l-6.42 36.99h-17.22l11.22-64.66h16.46zM-261.05 83.93l-2.78 9.83h-15.29L-262.85 0h17.22l-6.58 37.89c3.86-6.21 10.24-10.35 17.62-10.35 13.16 0 19.16 13.45 15.62 33.88-3.57 20.56-14.43 33.88-27.91 33.88-7.48.01-12.6-4.39-14.17-11.37zm24.44-22.51c2.13-12.29-.14-19.53-6.9-19.4-6.2 0-10.94 6.34-12.73 16.68l-.94 5.43c-1.82 10.47.72 16.81 7.03 16.81 6.52.01 11.36-6.97 13.54-19.52zM-174.31 27.54h1.07l-3.43 19.79c-1.05-.13-1.9-.13-3.19-.13-4.6 0-8.27 1.42-11.05 3.88-4.1 3.88-5.96 9.7-7.11 16.29l-4.58 26.38h-17.22l11.22-64.66h16.15l-2.89 16.68c4.81-11.63 11.84-18.23 21.03-18.23zM-180.53 76.17c1.05-6.08 3.7-10.86 7.88-13.97 4.05-2.97 9.54-5.04 17.89-6.34l13.32-2.2.38-2.2c1.28-7.37-.73-10.61-6.07-10.61-5.24 0-8.82 3.36-10.22 9.57h-17c3.35-14.35 14.45-22.89 29.64-22.89 17.22 0 23.51 8.15 20.28 26.77l-3.72 21.47c-1.32 7.63-1.89 13.97-1.62 17.98h-16.68c0-3.1.4-6.6.92-10.22-3.93 7.24-11.56 11.77-19.9 11.77-11.04.01-17.1-7.62-15.1-19.13zm36.96-7.12.9-5.17-9.51 1.81c-6.56 1.42-9.92 4.14-10.75 8.92-.79 4.53 1.69 7.5 6.19 7.5 6.52.01 11.82-5.3 13.17-13.06zM-68.3 66.08h-37.11c-1.42 8.79 2.64 14.36 9.81 14.36 5.24 0 9.74-3.1 13.23-9.05l11.41 6.98c-6.12 10.6-16.31 16.94-27.43 16.94-17.65 0-26.21-12.29-22.57-33.23 3.68-21.21 16.47-34.53 33.16-34.53 16.79 0 24.16 11.77 20.59 32.33l-1.09 6.2zm-14.46-12.16c1.59-9.18-1.08-14.1-7.5-14.1-6.63 0-11.32 5.43-13.13 14.61h20.53l.1-.51zM-21.07 27.54H-20l-3.43 19.79c-1.05-.13-1.9-.13-3.19-.13-4.6 0-8.27 1.42-11.05 3.88-4.1 3.88-5.96 9.7-7.11 16.29l-4.58 26.38h-17.22l11.22-64.66h16.15l-2.89 16.68c4.8-11.63 11.83-18.23 21.03-18.23zM-562.42 39.93l4.12-23.69h23.82l2.45-13.91h-41.72l-16.09 91.42h17.89l7.09-40.04h21.89l2.44-13.78zM-519.93 78.05l12.64-71.46-4.25-4.25h-12.89l-14 79.49c-1.1 6.22 3.69 11.93 10.01 11.93h15.07l15.75-15.71h-22.33zM-441.18 43.71l26.63-26.63-15.31.07c-4.4.02-8.62 1.78-11.74 4.9l-10.62 10.62 11.04 11.04zM-446.91 44.89l-8.73-8.73-19.88-19.88h-22.06l24.49 24.49c2.64 2.64 6.22 4.12 9.95 4.12h16.23zM-473.08 53.55l-24.5 24.49h22.06l19.88-19.88 8.74-8.73h-16.24c-3.73.01-7.31 1.49-9.94 4.12z"/>
  <path d="m223.29 77.59-2.81 16.16h-52.73l15.93-91.82h51.98l-2.8 16.16h-33.9l-3.59 20.69h32.09l-2.78 16.04h-32.09l-3.95 22.76h34.65zM252.37 29.1l-2.02 11.64c4.97-8.92 10.87-13.32 18.78-13.32 7.59 0 11.77 4.27 12.85 13.45 5.42-9.05 11.75-13.45 19.45-13.45 10.37 0 14.92 8.92 12.3 24.05l-7.34 42.29h-17.11l6.58-37.89c1.5-8.66-.07-12.54-4.99-12.54-5.13 0-8.83 4.66-10.33 13.32l-6.44 37.12h-17.11l6.6-38.02c1.46-8.41-.2-12.41-4.9-12.41-5.13 0-8.85 4.78-10.36 13.45l-6.42 36.99h-17.22L235.9 29.1h16.47zM328.79 83.93l-2.78 9.83h-15.29L326.99 0h17.22l-6.58 37.89c3.86-6.21 10.24-10.35 17.62-10.35 13.16 0 19.16 13.45 15.62 33.88-3.57 20.56-14.43 33.88-27.91 33.88-7.48.01-12.6-4.39-14.17-11.37zm24.44-22.51c2.13-12.29-.14-19.53-6.9-19.4-6.2 0-10.94 6.34-12.73 16.68l-.94 5.43c-1.82 10.47.72 16.81 7.03 16.81 6.52.01 11.37-6.97 13.54-19.52zM415.54 27.54h1.07l-3.43 19.79c-1.05-.13-1.9-.13-3.19-.13-4.6 0-8.27 1.42-11.05 3.88-4.1 3.88-5.96 9.7-7.11 16.29l-4.58 26.38h-17.22l11.22-64.66h16.15l-2.89 16.68c4.8-11.63 11.83-18.23 21.03-18.23zM409.31 76.17c1.05-6.08 3.7-10.86 7.88-13.97 4.05-2.97 9.54-5.04 17.89-6.34l13.32-2.2.38-2.2c1.28-7.37-.73-10.61-6.07-10.61-5.24 0-8.82 3.36-10.22 9.57h-17c3.35-14.35 14.45-22.89 29.64-22.89 17.22 0 23.51 8.15 20.28 26.77l-3.72 21.47c-1.32 7.63-1.89 13.97-1.62 17.98h-16.68c0-3.1.4-6.6.92-10.22-3.93 7.24-11.56 11.77-19.9 11.77-11.04.01-17.09-7.62-15.1-19.13zm36.96-7.12.9-5.17-9.51 1.81c-6.56 1.42-9.92 4.14-10.75 8.92-.79 4.53 1.69 7.5 6.19 7.5 6.52.01 11.82-5.3 13.17-13.06zM521.55 66.08h-37.11c-1.42 8.79 2.64 14.36 9.81 14.36 5.24 0 9.74-3.1 13.23-9.05l11.41 6.98c-6.12 10.6-16.31 16.94-27.43 16.94-17.65 0-26.21-12.29-22.57-33.23 3.68-21.21 16.47-34.53 33.16-34.53 16.79 0 24.16 11.77 20.59 32.33l-1.09 6.2zm-14.47-12.16c1.59-9.18-1.08-14.1-7.5-14.1-6.63 0-11.32 5.43-13.13 14.61h20.53l.1-.51zM568.77 27.54h1.07l-3.43 19.79c-1.05-.13-1.9-.13-3.19-.13-4.6 0-8.27 1.42-11.05 3.88-4.1 3.88-5.96 9.7-7.11 16.29l-4.58 26.38h-17.22l11.22-64.66h16.15l-2.89 16.68c4.81-11.63 11.84-18.23 21.03-18.23zM27.43 39.93l4.12-23.69h23.82l2.44-13.91H16.09L0 93.75h17.9l7.08-40.04h21.89l2.45-13.78zM69.92 78.05 82.56 6.59 78.3 2.33H65.41l-14 79.49c-1.1 6.22 3.69 11.93 10.01 11.93H76.5l15.75-15.71H69.92zM148.66 43.71l26.63-26.63-15.31.07c-4.4.02-8.62 1.78-11.74 4.9l-10.62 10.62 11.04 11.04zM142.93 44.89l-8.73-8.73-19.88-19.88H92.26l24.49 24.49c2.64 2.64 6.22 4.12 9.95 4.12h16.23zM116.76 53.55l-24.5 24.49h22.06l19.88-19.88 8.74-8.73H126.7c-3.73.01-7.3 1.49-9.94 4.12z"/>
</svg>